<mxfile host="app.diagrams.net" modified="2024-02-08T11:51:38.709Z" agent="Mozilla/5.0 (Windows NT 10.0; Win64; x64) AppleWebKit/537.36 (KHTML, like Gecko) Chrome/121.0.0.0 Safari/537.36" version="23.1.2" etag="LM2YlDstStWr_1K06DG9" type="github">
  <diagram name="Page-1" id="sbP5_V08ZOYP8vuolDrE">
    <mxGraphModel>
      <root>
        <mxCell id="0" />
        <mxCell id="1" parent="0" />
      </root>
    </mxGraphModel>
  </diagram>
</mxfile>
